<?xml version="1.0" encoding="utf-8"?>
<!-- Generator: Adobe Illustrator 22.1.0, SVG Export Plug-In . SVG Version: 6.00 Build 0)  -->
<svg version="1.1" id="Layer_1" xmlns="http://www.w3.org/2000/svg" xmlns:xlink="http://www.w3.org/1999/xlink" x="0px" y="0px"
	 viewBox="0 0 1024 768" style="enable-background:new 0 0 1024 768;" xml:space="preserve">
<style type="text/css">
	.st0{fill:#003340;}
	.st1{fill:#A2BFDC;}
	.st2{opacity:0.46;fill:#A3B6BF;}
	.st3{fill:#4890C0;}
	.st4{fill:#BFDAE7;}
	.st5{fill:#032630;}
	.st6{fill:#A3B6BF;}
	.st7{fill:#5B8295;}
	.st8{fill:#2AC570;}
</style>
<g>
	<rect x="478.1" y="430.4" class="st0" width="26" height="51.3"/>
	<g>
		<g>
			<path class="st0" d="M458,600.8c-4.6-0.6-7.8-5.1-7.3-10l11.9-110.1c0.5-4.9,4.7-8.5,9.2-7.9c4.6,0.6,7.8,5.1,7.3,10l-11.9,110.1
				C466.7,597.9,462.5,601.4,458,600.8z"/>
		</g>
		<g>
			<path class="st0" d="M527.8,597.8L512.3,483c-0.7-4.9,2.5-9.5,7-10.2c4.5-0.7,8.8,2.7,9.4,7.6l15.5,114.7c0.7,4.9-2.5,9.5-7,10.2
				C532.6,606.1,528.4,602.7,527.8,597.8z"/>
		</g>
		<g>
			<path class="st1" d="M471.8,551.2l1.4,100.2l-50.9-2.1l22.4-98.3c1.2-5.2,3.6-10,6.7-11.6c3.3-1.8,8.2-1.5,11.7-0.4
				C467,540.2,471.8,546.6,471.8,551.2z"/>
			<path class="st2" d="M471.8,551.2c0-1.1-0.3-2.2-0.7-3.4c-4,38.5-15.6,96.9-48.8,101.5l50.9,2.1L471.8,551.2z"/>
			<path class="st3" d="M447.9,650.3l2.7-34l22.2,2.5l0-1.6l-22.1-2.5l6.1-76.6c-0.5,0-1,0.1-1.5,0.1l-4.5,56.6h-16l-0.2,0.7
				c-0.1,0.3-0.1,0.6-0.2,0.9h16.3l-4.3,53.9L447.9,650.3z"/>
			<path class="st3" d="M452.4,612.6c0,0.4,0.3,0.7,0.6,0.7c0.4,0,0.6-0.3,0.6-0.7s-0.3-0.7-0.6-0.7
				C452.7,611.9,452.4,612.2,452.4,612.6z"/>
			<path class="st3" d="M449,592.5c0,0.5,0.3,0.8,0.8,0.8c0.4,0,0.8-0.4,0.8-0.8c0-0.5-0.3-0.8-0.8-0.8
				C449.3,591.7,449,592,449,592.5z"/>
			<path class="st4" d="M476.9,664.9c0,0-61.6,0.8-66.2-1.6c-4.6-2.4,12.1-17.8,20.8-20.7c16.2-5.3,39.8,1.3,43.6,11.1
				C479.1,663.6,476.9,664.9,476.9,664.9z"/>
			<path class="st0" d="M471.1,659.6c0,0,2.2-1.3-1.7-11.1c-0.2-0.5-0.5-1.1-0.8-1.6c3.2,2,5.6,4.3,6.6,6.9
				c3.9,9.8,1.7,11.1,1.7,11.1s-61.6,0.8-66.2-1.6c-1.3-0.7-0.9-2.3,0.4-4.4C427.8,660.2,471.1,659.6,471.1,659.6z"/>
		</g>
		<g>
			<path class="st1" d="M519.5,547.4l-1.4,100.3l51.4-2.1l-22.6-98.4c-1.2-5.2-3.7-10-6.8-11.7c-3.4-1.8-8.2-1.5-11.8-0.4
				C524.3,536.5,519.5,542.8,519.5,547.4z"/>
			<path class="st2" d="M519.5,547.4c0-1.1,0.3-2.2,0.7-3.4c4,38.5,15.7,97,49.2,101.6l-51.4,2.1L519.5,547.4z"/>
			<path class="st3" d="M540.9,592.7h16.4c-0.1-0.5-0.2-1-0.3-1.5l0-0.1h-16.2l-4.5-56.7c-0.5-0.1-1-0.1-1.5-0.1l6.1,76.7l-22.3,2.5
				l0,0.1c0,0.1,0,0.1,0,0.2l0,1.3l22.4-2.5l2.7,34.1l0.5,0l1,0L540.9,592.7z"/>
			<path class="st3" d="M539.1,608.9c0,0.4-0.3,0.7-0.6,0.7c-0.4,0-0.6-0.3-0.6-0.7c0-0.4,0.3-0.7,0.6-0.7
				C538.8,608.2,539.1,608.5,539.1,608.9z"/>
			<path class="st3" d="M542.6,588.8c0,0.5-0.3,0.8-0.8,0.8c-0.4,0-0.8-0.4-0.8-0.8c0-0.5,0.3-0.8,0.8-0.8
				C542.3,588,542.6,588.4,542.6,588.8z"/>
			<path class="st4" d="M514.4,661.3c0,0,62.1,0.8,66.8-1.6c4.6-2.4-12.2-17.8-21-20.7c-16.4-5.3-40.1,1.3-44,11.1
				C512.2,660,514.4,661.3,514.4,661.3z"/>
			<path class="st0" d="M520.2,656c0,0-2.2-1.3,1.7-11.1c0.2-0.5,0.5-1.1,0.8-1.6c-3.3,2-5.6,4.3-6.7,6.9
				c-3.9,9.8-1.7,11.1-1.7,11.1s62.1,0.8,66.8-1.6c1.3-0.7,0.9-2.3-0.4-4.4C563.9,656.5,520.2,656,520.2,656z"/>
		</g>
		<g>
			<g>
				<path class="st1" d="M454.7,468c-19.7,0,12.9,54.7,40.1,54.7c22.6,0,57.6-54.3,37.9-54.3L454.7,468z"/>
				<path class="st2" d="M532.7,468.3l-8.9,0c-7.6,15.9-26.4,36.7-40.3,36.7c-11.1,0-23-9-32-19.8c7.1,16,26.3,37.4,43.3,37.4
					C517.4,522.6,552.5,468.3,532.7,468.3z"/>
			</g>
			<path class="st0" d="M532.9,483.4h-78.2c-5.5,0-9.9-4.4-9.9-9.9v0c0-5.5,4.4-9.9,9.9-9.9h78.2c5.5,0,9.9,4.4,9.9,9.9v0
				C542.7,479,538.3,483.4,532.9,483.4z"/>
		</g>
	</g>
</g>
<g>
	<g>
		<g>
			<path class="st1" d="M453.3,450.4h72.4c12.8-14.7,27.7-33.2,30-51.7c1.2-9.5,2.2-22.6-0.8-30.5c-6-16.1-25.8-25.4-33.5-26.4
				c-20.1-2.6-40.3-3.2-60.6-1.9c-2.5,0.2-4.7,1.4-6.9,2.4c-12,5.3-24.6,16.4-28.9,27.3c-3.3,8.5-0.9,22.6,0.2,32
				C427.6,420,440.5,435.6,453.3,450.4z"/>
			<ellipse class="st5" cx="490.5" cy="348.9" rx="25.9" ry="9.7"/>
			<path class="st6" d="M490.5,339.2c-0.7,0-1.3,0-2,0c13.4,0.4,23.9,4.6,23.9,9.7c0,5.1-10.5,9.3-23.9,9.7c0.7,0,1.3,0,2,0
				c14.3,0,25.9-4.3,25.9-9.7C516.4,343.5,504.8,339.2,490.5,339.2z"/>
			<path class="st3" d="M504.1,450.4c3.2-36.6,8.8-74.8,30.6-103.6c-2-1.1-4-2.1-5.8-2.8c-8.8,12-15,25.6-19.5,39.9
				c-12.7-1.2-25.4-0.1-38,1.3c-3.8-15.2-9.1-29.7-17.9-42.7c-1.9,0.8-3.7,1.8-5.6,2.9c20.9,29.9,22.3,69.3,28.5,105h6.2
				c-3.4-19.4-5.5-39.5-9.7-58.7c11.5-1.2,23.1-2.2,34.6-1.3c-5.3,19.3-7.8,39.9-9.5,60H504.1z"/>
			<path class="st2" d="M555,368.2c-3.4-9-11.1-15.9-18.6-20.4c3.3,8.3,2.1,22,1,31c-3.3,26-27.6,51.7-59.3,51.7h-40.7
				c4.7,6.9,10.3,13.5,15.9,19.9h72.4c12.8-14.7,27.7-33.2,30-51.7C556.9,389.1,558,376.1,555,368.2z"/>
		</g>
		<path class="st0" d="M504.1,316.6c-0.6,32,1.4,34.9-2,41c-3.5,0.7-7.4,1-11.6,1c-4.2,0-8.1-0.4-11.6-1c-1.3-2.2-2-4.9-2-7.7v-33.2
			H504.1z"/>
		<path class="st7" d="M504.1,340.6l0,1.1c16.8,5.8,6.5,16.2-15.6,16.8c0.7,0,1.3,0,2,0C516.2,358.6,526.4,345.8,504.1,340.6z"/>
	</g>
	<path class="st5" d="M552.2,365.9c-4.9-0.9-10.7,10.8-13.1,26.1c-2.4,15.3-0.3,28.4,4.5,29.3c4.9,0.9,10.7-10.8,13.1-26.1
		C559.1,379.9,557,366.8,552.2,365.9z"/>
	<path class="st7" d="M556.7,395.2c-0.1,0.7-0.2,1.4-0.4,2.1c1.9-14.4-0.2-26.3-4.8-27.2c-4.6-0.8-10.2,9.7-12.8,24
		c0.1-0.7,0.2-1.4,0.3-2.1c2.4-15.3,8.2-27,13.1-26.1C557,366.8,559.1,379.9,556.7,395.2z"/>
	<path class="st5" d="M428.9,368.7c4.9-0.9,10.7,10.8,13.1,26.1c2.4,15.3,0.3,28.4-4.5,29.3c-4.9,0.9-10.7-10.8-13.1-26.1
		C422,382.7,424,369.6,428.9,368.7z"/>
	<path class="st7" d="M424.4,398c0.1,0.7,0.2,1.4,0.4,2.1c-1.9-14.4,0.2-26.3,4.8-27.2c4.6-0.8,10.2,9.7,12.8,24
		c-0.1-0.7-0.2-1.4-0.3-2.1c-2.4-15.3-8.2-27-13.1-26.1C424,369.6,422,382.7,424.4,398z"/>
</g>
<g>
	<g>
		<path class="st0" d="M582.6,415.2c-25.1,0-39.7-22.4-40.4-23.5c-2.6-4.1-1.7-9.7,2.1-12.5c3.8-2.8,8.9-1.8,11.5,2.3
			c0.6,0.9,13.4,20.1,34.2,14.7c7.5-1.9,15.7-14.4,22.8-34.4c1.6-4.6,6.4-7,10.7-5.2c4.3,1.8,6.4,7,4.8,11.6
			c-9.4,26.8-21,42.1-34.5,45.5C589.8,414.7,586.1,415.2,582.6,415.2z"/>
	</g>
	<path class="st1" d="M636.1,340c0,0-7.6,55.5-18,66c-10.3,10.5-33.7-8.8-32.2-16.3c1.3-6.1,37.4-57.5,37.4-57.5L636.1,340z"/>
	<path class="st3" d="M615.1,367.2l13.8-31.7l-1.8-1.1L596.9,404c0.6,0.4,1.2,0.8,1.8,1.1l15.6-35.9c5.6,3.7,11.2,4.6,15.3,4.6
		c0.1,0,0.2,0,0.4,0c0.2-0.8,0.3-1.5,0.5-2.3C626.5,371.7,620.8,371,615.1,367.2z"/>
	<path class="st0" d="M612,306.7c-1.7,0.2-2.4,2.4-1.3,3.8c1.7,2.1,4.1,5.6,5.2,8.7c1.7,5,3.2,16,8.2,18.5
		c4.9,2.5,10.4,3.8,15.1-0.3c4.7-4.1,6.6-13.4,9-14.4c2.4-0.9,10.6-11.6,8.5-14.1c-1.5-1.7-10.2,10.4-12.2,9.5
		c-1.9-1,7.2-15.7,6.4-18.3c-0.9-2.6-3.2-3-4.4,0c-1.3,3-6.6,13.8-7.7,13.2c-1.1-0.6,4.1-17,4.1-19.3c0-2.3-3.1-3.2-3.8-1.4
		c-0.8,1.8-5.3,17.5-6.5,17.9c-1.2,0.5-0.5-16.6-0.4-18.6c0.1-2-3.1-3.5-4.7-1.8c-1.5,1.7,0.4,21.9-1.5,23.5c-1.9,1.6-3.8,2.7-5.2,0
		C619.6,311.7,615.7,306.3,612,306.7z"/>
</g>
<g>
	<g>
		<path class="st0" d="M395.7,500.9c-7.5-50.5,14.7-98.8,27.5-113.5c3.1-3.6,8.4-3.8,11.7-0.4c3.3,3.4,3.5,9.1,0.4,12.7
			c-0.3,0.3-14.9,17.9-22.3,54.7c-2.8,14-3.2,28.7-0.9,43.6c0.7,4.9-2.3,9.5-6.9,10.3C400.7,509.1,396.4,505.8,395.7,500.9z"/>
	</g>
	<path class="st1" d="M396.9,513.2c0,0-17.1-53-12.4-67.4c4.6-14.5,33.7-9.2,35.5-1.8c1.5,6.1-8.4,69.7-8.4,69.7L396.9,513.2z"/>
	<path class="st3" d="M403.7,478.6l1.4,35l2,0.1l-3-76.8c-0.7-0.1-1.4-0.1-2.1-0.1l1.6,39.7c-6.6-0.4-11.9,1.5-15.6,3.6
		c-0.1,0.1-0.2,0.1-0.3,0.2c0.2,0.8,0.3,1.5,0.5,2.3C391.8,480.3,397.1,478.1,403.7,478.6z"/>
	<path class="st0" d="M394.2,514.8c0,0,3.7-8.1,13.9-5.6c10.2,2.5,7.1,13.6,10,18.6c2.9,5,6,12,4,13.5c-2.1,1.4-9.8-6.3-11.4-9
		c-1.6-2.8-6.5,12-7.4,16.3c-0.9,4.3,5.8,17.1,3.2,18.9c-2.5,1.7-13.2-16.3-14.6-18.6C390.5,546.3,393.4,518.9,394.2,514.8z"/>
</g>
<g>
	<g>
		<ellipse class="st0" cx="487.2" cy="229.8" rx="142.1" ry="69.2"/>
		<g>
			<path class="st1" d="M361.7,262.2c2.5,2.3,5.3,4.5,8.3,6.7c-7.4-22.9-10.6-48.4-9.8-70.2c-2.3,2.2-4.4,4.6-6.2,6.9
				C354.1,223.6,356.6,243.4,361.7,262.2z"/>
			<path class="st1" d="M620.4,205.6c-1.8-2.4-3.9-4.7-6.2-6.9c1.2,22-2.9,47.9-11,71.2c3.1-2.2,6-4.4,8.7-6.7
				C617.5,243.9,620.5,223.7,620.4,205.6z"/>
		</g>
	</g>
	<path class="st1" d="M525.8,327.7c-26.3-4-53-4.6-79.6-1.8c-61,6.4-82.8-92.6-74-142.5c4.4-25.4,30.6-43.6,52.7-49.3
		c40-10.3,82.8-10.9,123-1.8c21.6,5,42.9,20.8,51.3,43.6C616.7,223.7,585.5,336.7,525.8,327.7z"/>
	<path class="st2" d="M599.2,176.1c-4.2-11.3-11.5-20.8-20.4-28.2c3,4.3,5.5,9.1,7.4,14.1c17.6,47.6-13.7,160.6-73.3,151.7
		c-26.3-4-53-4.6-79.6-1.8c-14.5,1.5-26.7-2.9-36.9-11.2c12.1,16.9,28.6,27.5,50,25.3c26.5-2.8,53.2-2.2,79.6,1.8
		C585.5,336.7,616.7,223.7,599.2,176.1z"/>
	<path class="st0" d="M545.5,281.3c-10.2,4.3-21.1,6.9-31.1,8.4c-31.9,4.7-70.3,2.3-98.2-16.5c-12.6-8.4-22.3-21-24.7-37.2
		c-0.2-1.3-0.4-2.6-0.6-3.9c-4.5-30.9,16.3-59.2,45.1-61.7c34.7-2.9,69.6-2.9,104.3,0c28.8,2.4,49.6,30.8,45.1,61.7
		c-0.2,1.2-0.4,2.5-0.5,3.7C581.4,259.2,564.8,273.2,545.5,281.3z"/>
	<path class="st8" d="M515.1,258.8c0,6-11.4,16.3-25.6,16.3c-14.1,0-25.6-10.4-25.6-16.3c0-6,11.4-5.3,25.6-5.3
		C503.6,253.5,515.1,252.8,515.1,258.8z"/>
	<path class="st8" d="M452.7,221.1c0,4.9-3.7,8.9-8.2,8.9c-4.5,0-8.2-4-8.2-8.9c0-4.9,3.7-8.9,8.2-8.9
		C449,212.2,452.7,216.2,452.7,221.1z"/>
	<path class="st8" d="M538.1,218.2c0,4.9-3.7,8.9-8.2,8.9c-4.5,0-8.2-4-8.2-8.9c0-4.9,3.7-8.9,8.2-8.9
		C534.4,209.3,538.1,213.3,538.1,218.2z"/>
</g>
</svg>
